<svg width="80" height="63" viewBox="0 0 80 63" fill="none" xmlns="http://www.w3.org/2000/svg">
<g filter="url(#filter0_d)">
<path d="M57.9726 30.5281L68.3854 22.3513C68.9447 21.9122 69.8517 21.9122 70.411 22.3513C70.9704 22.7906 70.9703 23.5028 70.411 23.942L59.9981 32.1189C59.7184 32.3384 59.3519 32.4484 58.9854 32.4484C58.6189 32.4484 58.2523 32.3384 57.9727 32.1189C57.4131 31.6796 57.4133 30.9673 57.9726 30.5281Z" fill="#575555"/>
<path d="M53.6501 33.903L54.4456 33.2783C55.005 32.8392 55.912 32.8392 56.4713 33.2783C57.0306 33.7176 57.0306 34.4298 56.4713 34.869L55.6758 35.4937C55.3962 35.7133 55.0296 35.8232 54.6631 35.8232C54.2966 35.8232 53.9301 35.7133 53.6502 35.4937C53.0908 35.0544 53.0908 34.3422 53.6501 33.903Z" fill="#575555"/>
<path d="M4.26341 46.4593C6.13748 38.6292 10.9562 31.484 18.1989 25.7966C25.564 20.013 34.7165 16.2422 44.8145 14.8088L41.7134 12.3736C40.0057 11.0326 39.0274 9.25106 38.9587 7.3575C38.8892 5.43989 39.7635 3.62683 41.4206 2.2522C43.1383 0.827287 45.4579 0.0276071 47.9525 0.00070112C50.4498 -0.0262048 52.7942 0.72209 54.5586 2.10764L73.3204 16.8406C76.8932 19.6463 76.8932 24.2114 73.3204 27.0171L54.5588 41.7505C52.8279 43.1096 50.5269 43.858 48.0793 43.858C45.5521 43.858 43.1981 43.0669 41.4507 41.6305C38.0408 38.8277 38.1569 34.2777 41.7096 31.4877L43.8001 29.8461C32.8403 32.7101 24.4543 40.082 22.2718 49.1755C21.4619 52.5505 17.6775 55 13.2735 55C10.5378 55 7.96704 54.0517 6.22047 52.3986C4.46998 50.7417 3.75677 48.5769 4.26341 46.4593ZM8.4251 50.9623C9.62571 52.0988 11.3928 52.7506 13.2733 52.7506C16.3011 52.7506 18.9017 51.0718 19.4567 48.7588C22.1754 37.4321 33.7313 28.5587 48.2121 26.6788C48.2905 26.6686 48.3686 26.6636 48.4462 26.6636C48.9762 26.6636 49.4716 26.8953 49.7197 27.2744C50.0042 27.7092 49.8986 28.2383 49.4587 28.5839L43.7353 33.0783C41.2743 35.011 41.1787 38.1503 43.522 40.0765C44.7238 41.0643 46.3423 41.6082 48.0793 41.6082C49.7618 41.6082 51.3435 41.0938 52.5333 40.1595L71.2948 25.4264C73.7507 23.4979 73.7507 20.3598 71.2948 18.4313L52.5332 3.69818C51.3202 2.74577 49.7106 2.23136 47.992 2.24999C46.2774 2.26841 44.6826 2.81844 43.5011 3.79852C41.1802 5.72384 41.2869 8.85706 43.7391 10.7827L48.8429 14.7906C49.2299 15.0946 49.3626 15.5452 49.1846 15.9516C49.0065 16.3581 48.549 16.6494 48.0057 16.7021C37.4249 17.729 27.8185 21.4236 20.2246 27.3871C13.3915 32.7529 8.84566 39.4916 7.07887 46.8746C6.73006 48.3324 7.2207 49.8221 8.4251 50.9623Z" fill="#575555"/>
</g>
<defs>
<filter id="filter0_d" x="0.103882" y="0" width="79.8961" height="63" filterUnits="userSpaceOnUse" color-interpolation-filters="sRGB">
<feFlood flood-opacity="0" result="BackgroundImageFix"/>
<feColorMatrix in="SourceAlpha" type="matrix" values="0 0 0 0 0 0 0 0 0 0 0 0 0 0 0 0 0 0 127 0"/>
<feOffset dy="4"/>
<feGaussianBlur stdDeviation="2"/>
<feColorMatrix type="matrix" values="0 0 0 0 0 0 0 0 0 0 0 0 0 0 0 0 0 0 0.25 0"/>
<feBlend mode="normal" in2="BackgroundImageFix" result="effect1_dropShadow"/>
<feBlend mode="normal" in="SourceGraphic" in2="effect1_dropShadow" result="shape"/>
</filter>
</defs>
</svg>
